<?xml version="1.0" encoding="utf-8"?>
<svg version="1.1" xmlns="http://www.w3.org/2000/svg" xmlns:xlink="http://www.w3.org/1999/xlink" viewBox="225 225 550 550" style="enable-background:new 0 0 1000 1000" xml:space="preserve">
<style type="text/css">
	.st6{fill:#00007D;}
	.st7{fill:#FFFFFF;}
	.st8{fill:#929292;}
</style>
<g>
	<path class="st6" d="M691.3,500.36c0-105.44-85.58-191.02-191.02-191.02s-191.02,85.58-191.02,191.02
		c0,105.44,85.58,191.02,191.02,191.02S691.3,605.8,691.3,500.36"/>
	<path class="st7" d="M635.37,421.22c0-30.88-25.07-55.95-55.95-55.95s-55.95,25.07-55.95,55.95c0,30.88,25.07,55.95,55.95,55.95
		S635.37,452.1,635.37,421.22"/>
	<path class="st6" d="M747.25,309.34c0-30.88-25.07-55.95-55.95-55.95c-30.88,0-55.95,25.07-55.95,55.95s25.07,55.95,55.95,55.95
		C722.18,365.29,747.25,340.22,747.25,309.34"/>
	<path class="st7" d="M370.03,472.51h16.7v108.62h61.87v14.69h-78.57V472.51"/>
	<path class="st7" d="M478.74,505.92v59.68c0,4.59,0.71,8.34,2.13,11.25c2.62,5.37,7.49,8.06,14.63,8.06
		c10.24,0,17.22-4.7,20.93-14.1c2.02-5.04,3.02-11.95,3.02-20.73v-44.15h15.11v89.9h-14.27l0.17-13.26
		c-1.92,3.41-4.31,6.3-7.17,8.65c-5.66,4.7-12.52,7.05-20.59,7.05c-12.58,0-21.14-4.28-25.7-12.84c-2.47-4.59-3.71-10.72-3.71-18.38
		v-61.11H478.74"/>
	<path class="st7" d="M607.43,541.42c3.47-0.45,5.79-1.9,6.97-4.36c0.67-1.35,1.01-3.29,1.01-5.81c0-5.17-1.83-8.92-5.49-11.25
		c-3.66-2.33-8.89-3.5-15.71-3.5c-7.88,0-13.46,2.14-16.76,6.41c-1.84,2.36-3.04,5.88-3.6,10.55h-14.1
		c0.28-11.11,3.87-18.84,10.77-23.19c6.9-4.35,14.91-6.52,24.02-6.52c10.56,0,19.14,2.01,25.74,6.04c6.54,4.03,9.81,10.3,9.81,18.8
		v51.8c0,1.57,0.32,2.83,0.97,3.78c0.64,0.95,2,1.42,4.07,1.42c0.67,0,1.43-0.04,2.27-0.13c0.84-0.08,1.73-0.21,2.69-0.38v11.16
		c-2.35,0.67-4.14,1.09-5.37,1.26c-1.23,0.17-2.91,0.25-5.04,0.25c-5.2,0-8.98-1.85-11.33-5.54c-1.23-1.96-2.1-4.73-2.6-8.31
		c-3.08,4.03-7.5,7.53-13.26,10.49c-5.76,2.96-12.12,4.45-19.06,4.45c-8.34,0-15.15-2.53-20.44-7.59
		c-5.29-5.06-7.93-11.39-7.93-18.99c0-8.33,2.6-14.78,7.81-19.37c5.2-4.58,12.03-7.41,20.48-8.47L607.43,541.42L607.43,541.42z
		 M575.61,582.24c3.19,2.51,6.97,3.77,11.33,3.77c5.32,0,10.46-1.23,15.45-3.69c8.39-4.08,12.59-10.76,12.59-20.03v-12.15
		c-1.84,1.18-4.22,2.16-7.12,2.95c-2.9,0.79-5.75,1.35-8.54,1.68l-9.13,1.17c-5.47,0.73-9.59,1.87-12.35,3.44
		c-4.67,2.62-7.01,6.81-7.01,12.56C570.83,576.29,572.42,579.72,575.61,582.24L575.61,582.24z"/>
	<path class="st8" d="M509.16,750l-0.2-5.73c7.08-0.25,14.22-0.81,21.22-1.66l0.69,5.69C523.72,749.17,516.41,749.74,509.16,750
		L509.16,750z M487.38,749.82c-7.24-0.37-14.53-1.06-21.69-2.06l0.79-5.68c6.99,0.97,14.12,1.65,21.19,2.01L487.38,749.82
		L487.38,749.82z M552.37,744.71l-1.19-5.61c6.92-1.47,13.85-3.26,20.61-5.33l1.68,5.48C566.55,741.37,559.45,743.21,552.37,744.71
		L552.37,744.71z M444.26,743.83c-7.05-1.62-14.12-3.57-21-5.8l1.77-5.45c6.73,2.18,13.63,4.09,20.52,5.67L444.26,743.83
		L444.26,743.83z M594,731.97l-2.15-5.31c6.54-2.65,13.06-5.63,19.35-8.85l2.61,5.1C607.36,726.21,600.7,729.26,594,731.97
		L594,731.97z M402.83,730.39c-6.66-2.83-13.28-5.99-19.67-9.39l2.69-5.06c6.25,3.33,12.71,6.41,19.22,9.17L402.83,730.39
		L402.83,730.39z M632.76,712.16l-3.04-4.86c5.99-3.75,11.89-7.82,17.53-12.08l3.45,4.57C644.92,704.16,638.89,708.32,632.76,712.16
		L632.76,712.16z M364.39,709.93c-6.06-3.94-12.03-8.2-17.74-12.66l3.53-4.52c5.58,4.36,11.41,8.52,17.33,12.37L364.39,709.93
		L364.39,709.93z M667.5,685.93l-3.84-4.26c5.25-4.74,10.36-9.76,15.18-14.93l4.19,3.91C678.1,675.94,672.87,681.08,667.5,685.93
		L667.5,685.93z M330.08,683.12c-5.29-4.93-10.44-10.16-15.28-15.53l4.25-3.84c4.74,5.25,9.76,10.36,14.94,15.18L330.08,683.12
		L330.08,683.12z M697.19,654.08l-4.51-3.53c4.36-5.57,8.53-11.4,12.38-17.33l4.8,3.13C705.92,642.41,701.66,648.38,697.19,654.08
		L697.19,654.08z M300.91,650.79c-4.37-5.78-8.53-11.81-12.37-17.93l4.85-3.05c3.75,5.98,7.82,11.88,12.09,17.52L300.91,650.79
		L300.91,650.79z M720.95,617.58l-5.06-2.7c3.33-6.25,6.42-12.71,9.18-19.21l5.27,2.24C727.52,604.57,724.35,611.19,720.95,617.58
		L720.95,617.58z M277.78,613.92c-3.3-6.44-6.35-13.11-9.07-19.81l5.31-2.15c2.66,6.55,5.64,13.06,8.86,19.35L277.78,613.92
		L277.78,613.92z M737.99,577.5l-5.45-1.77c2.18-6.72,4.09-13.62,5.68-20.51l5.58,1.28C742.18,563.55,740.22,570.62,737.99,577.5
		L737.99,577.5z M261.42,573.58c-2.12-6.92-3.96-14.01-5.47-21.09l5.6-1.19c1.47,6.92,3.27,13.85,5.34,20.61L261.42,573.58
		L261.42,573.58z M747.75,535.07l-5.68-0.79c0.97-6.99,1.65-14.12,2.02-21.19l5.72,0.3C749.44,520.62,748.75,527.92,747.75,535.07
		L747.75,535.07z M252.36,531c-0.88-7.17-1.45-14.47-1.71-21.72l5.73-0.2c0.25,7.08,0.81,14.22,1.67,21.22L252.36,531L252.36,531z
		 M744.27,491.8c-0.25-7.07-0.81-14.21-1.67-21.23l5.69-0.7c0.88,7.19,1.46,14.5,1.71,21.73L744.27,491.8L744.27,491.8z
		 M256.53,487.79l-5.72-0.29c0.37-7.24,1.05-14.53,2.04-21.69l5.68,0.79C257.56,473.58,256.89,480.71,256.53,487.79L256.53,487.79z
		 M739.09,449.57c-1.47-6.92-3.26-13.85-5.33-20.62l5.48-1.68c2.12,6.92,3.95,14.02,5.46,21.1L739.09,449.57L739.09,449.57z
		 M262.37,445.66l-5.59-1.28c1.62-7.05,3.56-14.12,5.79-21.01l5.45,1.76C265.85,431.86,263.95,438.76,262.37,445.66L262.37,445.66z
		 M726.65,408.88c-2.65-6.56-5.62-13.08-8.83-19.38l5.11-2.6c3.28,6.45,6.33,13.12,9.04,19.83L726.65,408.88L726.65,408.88z
		 M275.47,405.18l-5.28-2.24c2.82-6.66,5.98-13.28,9.38-19.68l5.06,2.69C281.32,392.21,278.23,398.67,275.47,405.18L275.47,405.18z
		 M295.45,367.61l-4.81-3.12c3.94-6.07,8.2-12.04,12.65-17.74l4.52,3.53C303.46,355.85,299.3,361.68,295.45,367.61L295.45,367.61z
		 M321.63,334.07l-4.19-3.9c4.93-5.3,10.15-10.44,15.52-15.29l3.84,4.25C331.55,323.87,326.45,328.89,321.63,334.07L321.63,334.07z
		 M353.21,305.55l-3.46-4.57c5.77-4.37,11.8-8.53,17.93-12.38l3.05,4.85C364.74,297.22,358.85,301.29,353.21,305.55L353.21,305.55z
		 M633.27,295.6l-0.31-0.2l3.12-4.81l0.3,0.2L633.27,295.6L633.27,295.6z M614.6,284.62c-6.25-3.31-12.72-6.39-19.23-9.14l2.23-5.28
		c6.66,2.82,13.29,5.96,19.68,9.35L614.6,284.62L614.6,284.62z M389.22,282.93l-2.61-5.1c6.44-3.3,13.11-6.36,19.8-9.08l2.16,5.31
		C402.03,276.72,395.52,279.71,389.22,282.93L389.22,282.93z M575.41,268.05c-6.73-2.18-13.64-4.08-20.53-5.66l1.28-5.59
		c7.05,1.62,14.12,3.57,21.01,5.79L575.41,268.05L575.41,268.05z M428.62,266.93l-1.68-5.48c6.91-2.12,14.01-3.97,21.09-5.48
		l1.2,5.6C442.31,263.05,435.38,264.85,428.62,266.93L428.62,266.93z M533.94,258.54c-7.01-0.97-14.14-1.65-21.2-2.01l0.29-5.72
		c7.23,0.37,14.53,1.06,21.7,2.06L533.94,258.54L533.94,258.54z M470.22,258.06l-0.7-5.69c7.16-0.88,14.47-1.46,21.72-1.72
		l0.21,5.73C484.36,256.63,477.22,257.19,470.22,258.06L470.22,258.06z"/>
</g>
</svg>
